PathFileType	4	(X/Y/Z)	/Users/itak/Documents/Research/Walk-IL/dataset/trc/00273_00010.trc
DataRate	CameraRate	NumFrames	NumMarkers	Units	OrigDataRate	OrigDataStartFrame	OrigNumFrames
100.000000	100.000000	4	53	mm	100.000000	126	505
Frame#	Time	RPSI			LPSI			L3			STRN			T10			C7			CLAV			RBAK			LBAK			LSHO			LUPA			LAEL			LAOL			LWTS			LWPS			LFRA			LIFD			LHPS			LHTS			RSHO			RUPA			RAEL			RAOL			RWTS			RWPS			RFRA			RIFD			RHTS			RHPS			RBHD			LFHD			RFHD			LBHD			LHIP			RHIP			RASI			LKNE			LTHI			LANK			LTIP			LTOE			LMT1			LMT5			LHEE			RKNE			RTHI			RANK			RTIP			RTOE			RMT1			RMT5			RHEE			LASI			
		X1	Y1	Z1	X2	Y2	Z2	X3	Y3	Z3	X4	Y4	Z4	X5	Y5	Z5	X6	Y6	Z6	X7	Y7	Z7	X8	Y8	Z8	X9	Y9	Z9	X10	Y10	Z10	X11	Y11	Z11	X12	Y12	Z12	X13	Y13	Z13	X14	Y14	Z14	X15	Y15	Z15	X16	Y16	Z16	X17	Y17	Z17	X18	Y18	Z18	X19	Y19	Z19	X20	Y20	Z20	X21	Y21	Z21	X22	Y22	Z22	X23	Y23	Z23	X24	Y24	Z24	X25	Y25	Z25	X26	Y26	Z26	X27	Y27	Z27	X28	Y28	Z28	X29	Y29	Z29	X30	Y30	Z30	X31	Y31	Z31	X32	Y32	Z32	X33	Y33	Z33	X34	Y34	Z34	X35	Y35	Z35	X36	Y36	Z36	X37	Y37	Z37	X38	Y38	Z38	X39	Y39	Z39	X40	Y40	Z40	X41	Y41	Z41	X42	Y42	Z42	X43	Y43	Z43	X44	Y44	Z44	X45	Y45	Z45	X46	Y46	Z46	X47	Y47	Z47	X48	Y48	Z48	X49	Y49	Z49	X50	Y50	Z50	X51	Y51	Z51	X52	Y52	Z52	X53	Y53	Z53	

127	1.26	671.6939086914062	978.0006103515625	136.1773529052734	672.3377075195312	965.5745239257812	-38.70645523071289	689.6534423828125	1041.591552734375	39.64728164672852	941.9819946289062	1210.58740234375	74.72768402099609	679.8701782226562	1151.188720703125	35.10654067993164	722.7015380859375	1395.68212890625	31.21513557434082	879.968505859375	1312.671875	65.71900177001953	662.840087890625	1256.166015625	93.43397521972656	728.8388061523438	1361.784790039062	-74.68833923339844	827.559814453125	1369.073608398438	-105.2189483642578	813.442626953125	1256.863159179688	-188.1563415527344	816.4342041015625	1058.076416015625	-213.9960021972656	744.255859375	1038.157958984375	-168.2948455810547	928.3460693359375	860.0394287109375	-178.1879272460938	901.1284790039062	846.831787109375	-243.9072113037109	843.9099731445312	963.6315307617188	-230.9020843505859	972.8302001953125	678.85205078125	-191.0215759277344	925.3699951171875	760.717041015625	-247.9875335693359	975.0079345703125	771.9774169921875	-205.4823913574219	761.9127197265625	1373.809936523438	199.6153411865234	737.2979125976562	1318.299560546875	263.0708312988281	679.9566040039062	1060.392578125	306.1133728027344	684.3248901367188	1045.773559570312	208.8545227050781	795.4141845703125	843.6133422851562	321.4085388183594	723.4172973632812	838.2434692382812	365.9459533691406	693.2161865234375	994.7959594726562	330.1068115234375	813.449462890625	661.3321533203125	338.6270751953125	820.8650512695312	732.8392944335938	360.7669677734375	754.4501953125	729.704345703125	382.8620300292969	734.8908081054688	1549.093505859375	117.2940292358398	906.8873901367188	1600.481689453125	4.276906490325928	902.7384033203125	1597.362670898438	96.81411743164062	743.0737915039062	1543.329956054688	-30.76889228820801	736.4522094726562	909.0219116210938	-133.2230987548828	774.0347290039062	931.798095703125	241.1673889160156	889.4979248046875	925.0784301757812	167.7497711181641	743.6946411132812	439.262939453125	-125.0885162353516	754.8858032226562	581.89404296875	-134.8082122802734	389.7184448242188	147.0534210205078	-95.48028564453125	567.7897338867188	287.7229309082031	-123.4686050415039	546.94921875	36.82533645629883	-8.376405715942383	483.4538269042969	73.95602416992188	23.59871864318848	482.4613037109375	67.22649383544922	-88.07537841796875	348.4825744628906	182.6493072509766	-43.72967529296875	922.0498046875	476.2701110839844	193.1615295410156	873.6815795898438	733.3214111328125	239.3568420410156	928.0123291015625	34.2209587097168	152.8294830322266	955.2432861328125	355.0214538574219	176.6125335693359	1127.321411132812	33.11439895629883	106.0903930664062	1070.410766601562	31.62328910827637	65.46005249023438	1031.98974609375	25.71552276611328	176.4445495605469	879.3953857421875	29.64301872253418	100.930908203125	874.050048828125	913.2630004882812	-82.93737030029297	
128	1.27	665.9407348632812	977.2691040039062	135.8272094726562	665.1467895507812	964.9298706054688	-39.06510162353516	682.9773559570312	1041.067016601562	38.87634658813477	935.5809936523438	1209.740844726562	72.73748016357422	673.3401489257812	1150.378295898438	34.06840515136719	716.10546875	1394.871948242188	29.89701843261719	873.4420776367188	1311.759521484375	64.01462554931641	656.625244140625	1255.209106445312	92.29679107666016	721.9097290039062	1361.041870117188	-76.04542541503906	820.6105346679688	1368.374877929688	-106.6850433349609	807.0685424804688	1255.972900390625	-189.434814453125	811.4459228515625	1057.457153320312	-214.7279968261719	739.1237182617188	1036.776977539062	-169.6326293945312	926.4026489257812	861.7661743164062	-178.5043334960938	899.5530395507812	847.8370361328125	-244.2372741699219	840.1915893554688	963.5712890625	-231.6053466796875	974.84228515625	681.5726318359375	-190.8040618896484	925.5648803710938	762.1744384765625	-247.9973907470703	974.9567260742188	774.6902465820312	-205.5145721435547	755.8305053710938	1372.89453125	198.2614593505859	731.1901245117188	1317.439208984375	261.7135925292969	673.3130493164062	1059.57470703125	304.1272583007812	677.600830078125	1045.167846679688	206.9555206298828	788.3839721679688	842.5869750976562	319.257568359375	716.3435668945312	837.2529907226562	363.6844787597656	686.47021484375	993.91845703125	328.05224609375	806.1378784179688	660.25244140625	336.2263488769531	813.6226196289062	731.71630859375	358.4915161132812	747.1664428710938	728.6463623046875	380.4790344238281	728.7271728515625	1548.38037109375	115.988525390625	900.7677612304688	1599.423950195312	2.88446569442749	896.6554565429688	1596.262939453125	95.42984008789062	736.79248046875	1542.682373046875	-32.09070587158203	728.49609375	908.3626098632812	-134.0804443359375	769.1048583984375	930.9866943359375	239.9810943603516	883.95654296875	924.11865234375	165.7110137939453	734.5292358398438	438.5469665527344	-125.0869750976562	746.0045166015625	581.110107421875	-135.4810943603516	386.1884155273438	139.39013671875	-94.28239440917969	561.2195434570312	283.8698120117188	-122.804573059082	545.8695678710938	34.19302749633789	-6.891060829162598	481.7107543945312	68.77658081054688	24.6735725402832	480.9131164550781	62.24246978759766	-86.78441619873047	344.3041076660156	174.0633697509766	-42.59792709350586	917.921142578125	476.0632629394531	192.0437164306641	868.9952392578125	732.9619140625	237.9004516601562	928.0676879882812	34.23033142089844	152.8116302490234	951.9641723632812	355.2200927734375	175.7449188232422	1127.378295898438	32.98204803466797	106.0333938598633	1070.44970703125	31.55243682861328	65.42433166503906	1032.03857421875	25.69927406311035	176.3936462402344	879.4986572265625	29.6705379486084	100.9141082763672	866.3258666992188	912.5263061523438	-84.89176940917969	
129	1.28	659.8380126953125	976.47509765625	135.4240264892578	657.6578369140625	964.2225952148438	-39.45944595336914	676.0326538085938	1040.520629882812	38.07324981689453	928.9751586914062	1208.846069335938	70.57665252685547	666.5567626953125	1149.620239257812	32.99081039428711	709.392822265625	1394.078247070312	28.47809791564941	866.7385864257812	1310.8076171875	62.1383171081543	650.2393798828125	1254.304931640625	91.12309265136719	714.7904052734375	1360.316162109375	-77.50150299072266	813.46923828125	1367.6533203125	-108.2950134277344	800.4313354492188	1255.058227539062	-190.8256072998047	806.1051025390625	1056.846801757812	-215.4732818603516	733.6591796875	1035.3876953125	-170.9988250732422	924.0836181640625	863.57373046875	-178.8379211425781	897.6494140625	848.9178466796875	-244.5781402587891	836.1094970703125	963.5343627929688	-232.3223571777344	976.4273681640625	684.4471435546875	-190.4062194824219	925.4208984375	763.7139282226562	-247.9497222900391	974.4974975585938	777.4933471679688	-205.4610290527344	749.73828125	1371.994750976562	196.8020782470703	725.0924682617188	1316.615112304688	260.2623596191406	666.6807250976562	1058.8056640625	302.1602783203125	670.8299560546875	1044.601806640625	205.0105438232422	781.3208618164062	841.5553588867188	316.9718627929688	709.302978515625	836.2979125976562	361.3880310058594	679.7658081054688	993.0818481445312	325.9961242675781	798.7426147460938	659.1611938476562	333.677978515625	806.336669921875	730.5763549804688	356.0432434082031	739.8793334960938	727.6060791015625	378.0270385742188	722.4710083007812	1547.589599609375	114.6039810180664	894.5575561523438	1598.3603515625	1.443711161613464	890.4928588867188	1595.09619140625	94.00260925292969	730.4339599609375	1542.044189453125	-33.49300384521484	720.2472534179688	907.6737060546875	-134.9732208251953	763.8270874023438	930.0833129882812	238.7306518554688	878.1358032226562	923.126708984375	163.6541290283203	725.521728515625	437.7937622070312	-124.9794998168945	737.1604614257812	580.2667846679688	-136.0789337158203	383.0298156738281	131.7608489990234	-93.27445983886719	554.8990478515625	279.9657287597656	-122.1765899658203	545.2265625	32.26076889038086	-5.571308135986328	480.2574768066406	63.74402236938477	25.60586166381836	479.8835144042969	57.64971160888672	-85.71391296386719	340.3955383300781	165.3421936035156	-41.6691780090332	913.4361572265625	475.7714233398438	190.8774719238281	864.0043334960938	732.5177001953125	236.3988189697266	928.1156005859375	34.23962783813477	152.8083190917969	948.4369506835938	355.3694458007812	174.8422393798828	1127.396118164062	32.84933471679688	105.9553527832031	1070.46337890625	31.46070671081543	65.36666870117188	1032.091918945312	25.70795822143555	176.3140563964844	879.5796508789062	29.67276382446289	100.8730163574219	858.33203125	911.7821655273438	-86.87755584716797	
130	1.29	653.3885498046875	975.599609375	134.9825744628906	649.8841552734375	963.44140625	-39.87992477416992	668.8348999023438	1039.938842773438	37.24124908447266	922.159423828125	1207.890380859375	68.25135803222656	659.5194091796875	1148.911254882812	31.86229133605957	702.5758056640625	1393.299194335938	26.94260025024414	859.8661499023438	1309.812255859375	60.08649444580078	643.6694946289062	1253.455078125	89.88726043701172	707.5038452148438	1359.6044921875	-79.07730102539062	806.1588745117188	1366.889892578125	-110.0667419433594	793.540283203125	1254.092529296875	-192.3390502929688	800.392822265625	1056.212768554688	-216.2467651367188	727.8587646484375	1033.970581054688	-172.3690185546875	921.3779296875	865.4474487304688	-179.2406768798828	895.3963623046875	850.059814453125	-244.97607421875	831.6395874023438	963.5030517578125	-233.0682830810547	977.5645751953125	687.45751953125	-189.8516235351562	924.9120483398438	765.3131713867188	-247.8816833496094	973.6110229492188	780.363525390625	-205.3664093017578	743.6235961914062	1371.112426757812	195.2213745117188	718.9918823242188	1315.82373046875	258.7006225585938	660.0646362304688	1058.0810546875	300.2227172851562	664.0170288085938	1044.06103515625	203.0372467041016	774.228271484375	840.5160522460938	314.5564270019531	702.294677734375	835.3728637695312	359.0606689453125	673.1004638671875	992.2811889648438	323.9470520019531	791.2559204101562	658.0537719726562	330.9761352539062	799.0126953125	729.4166259765625	353.4222412109375	732.5903930664062	726.5781860351562	375.5072631835938	716.1253051757812	1546.7109375	113.1256256103516	888.2654418945312	1597.29931640625	-0.04097475111484528	884.2540283203125	1593.86376953125	92.53253936767578	724.0118408203125	1541.41796875	-34.98674774169922	711.7124633789062	906.9489135742188	-135.8976898193359	758.1892700195312	929.0695190429688	237.4224395751953	872.0314331054688	922.087646484375	161.5847930908203	716.6887817382812	437.0013427734375	-124.7568130493164	728.3525390625	579.36474609375	-136.5951538085938	380.0426635742188	124.4081649780273	-92.45687866210938	548.7417602539062	276.1282958984375	-121.5916213989258	544.7754516601562	31.07894706726074	-4.406784057617188	478.8550415039062	59.06405258178711	26.42513847351074	479.15283203125	53.64646911621094	-84.86153411865234	336.5451049804688	156.7794952392578	-40.98286819458008	908.62841796875	475.396484375	189.6671295166016	858.6998901367188	731.9739379882812	234.8474731445312	928.1449584960938	34.2457275390625	152.8235778808594	944.6885986328125	355.466064453125	173.9038848876953	1127.35791015625	32.77672958374023	105.8369827270508	1070.438354492188	31.36578559875488	65.27526092529297	1032.14208984375	25.76590156555176	176.2006683349609	879.6256103515625	29.65080070495605	100.8128128051758	850.0753173828125	911.019287109375	-88.89165496826172	
